<?xml version="1.0" standalone="no"?>
<!DOCTYPE svg PUBLIC "-//W3C//DTD SVG 20010904//EN"
 "http://www.w3.org/TR/2001/REC-SVG-20010904/DTD/svg10.dtd">
<svg version="1.0" xmlns="http://www.w3.org/2000/svg"
 width="500.000000pt" height="500.000000pt" viewBox="0 0 500.000000 500.000000"
 preserveAspectRatio="xMidYMid meet">
<metadata>
Created by potrace 1.16, written by Peter Selinger 2001-2019
</metadata>
<g transform="translate(0.000000,500.000000) scale(0.100000,-0.100000)"
fill="#000000" stroke="none">
<path d="M2477 4159 c-9 -5 -24 -24 -33 -42 -19 -38 -76 -92 -118 -114 -17 -9
-58 -18 -92 -21 -71 -5 -122 9 -259 73 -167 79 -267 93 -385 54 -119 -39 -198
-112 -258 -239 -32 -68 -36 -83 -36 -167 -1 -108 9 -126 72 -126 50 0 58 5 83
56 44 86 89 135 163 180 45 27 60 31 131 31 73 1 88 -3 172 -41 117 -54 199
-70 287 -55 141 23 255 110 327 248 52 98 55 119 25 149 -27 27 -50 31 -79 14z"/>
<path d="M1159 3454 c-10 -12 -16 -72 -21 -223 -4 -113 -9 -258 -12 -321 -3
-63 -10 -225 -16 -360 -5 -135 -12 -294 -15 -355 -3 -60 -8 -166 -10 -235 -3
-69 -9 -219 -15 -335 -5 -115 -12 -276 -15 -358 -3 -81 -8 -153 -11 -161 -3
-8 -26 -16 -56 -18 -27 -3 -54 -12 -59 -19 -5 -8 -9 -53 -9 -101 0 -145 -193
-128 1473 -128 1376 0 1435 1 1450 18 13 15 17 39 17 115 0 56 -4 99 -11 102
-5 4 -31 10 -57 14 l-47 6 -5 867 c-3 476 -7 868 -10 871 -18 16 -51 26 -66
20 -10 -4 -47 -26 -81 -50 -35 -24 -65 -43 -67 -43 -4 0 -127 -80 -216 -140
-25 -17 -108 -72 -185 -122 -77 -50 -191 -124 -254 -165 -62 -41 -121 -73
-130 -71 -14 3 -16 33 -19 278 -2 265 -3 275 -24 297 -26 28 -57 29 -91 3 -14
-11 -28 -20 -30 -20 -3 0 -49 -29 -102 -65 -52 -36 -99 -65 -104 -65 -4 0 -16
-9 -26 -20 -10 -11 -22 -20 -26 -20 -4 0 -77 -46 -161 -103 -84 -56 -211 -140
-283 -186 -71 -46 -132 -87 -135 -90 -3 -3 -17 -12 -33 -20 -36 -19 -50 -5
-53 51 -7 136 -17 363 -19 423 -8 233 -26 627 -29 668 -7 79 -3 77 -226 77
-171 0 -199 -2 -211 -16z m1067 -1651 c16 -23 19 -47 19 -145 0 -109 -1 -118
-24 -142 -24 -25 -28 -26 -148 -26 -118 0 -125 1 -148 25 -24 23 -25 30 -25
146 0 112 2 125 22 146 20 22 28 23 154 23 l132 0 18 -27z m590 6 c16 -18 20
-40 22 -138 l4 -117 -30 -32 -30 -32 -120 0 -120 0 -25 29 c-23 27 -25 38 -25
136 -1 108 10 156 40 168 7 3 70 6 139 6 116 1 127 -1 145 -20z m594 -1 c18
-19 20 -35 20 -144 l0 -122 -31 -26 c-29 -24 -37 -26 -139 -26 -169 0 -180 11
-180 176 0 91 3 110 21 135 l20 29 134 0 c125 0 136 -1 155 -22z"/>
</g>
</svg>
