<?xml version="1.0" standalone="no"?>
<!DOCTYPE svg PUBLIC "-//W3C//DTD SVG 20010904//EN"
 "http://www.w3.org/TR/2001/REC-SVG-20010904/DTD/svg10.dtd">
<svg version="1.0" xmlns="http://www.w3.org/2000/svg"
 width="500.000000pt" height="500.000000pt" viewBox="0 0 500.000000 500.000000"
 preserveAspectRatio="xMidYMid meet">

<g transform="translate(0.000000,500.000000) scale(0.100000,-0.100000)"
fill="#000000" stroke="none">
<path d="M2315 4259 c-167 -24 -427 -134 -565 -238 -144 -109 -300 -294 -364
-434 -34 -73 -75 -203 -92 -292 -22 -111 -24 -357 -5 -465 15 -86 79 -278 118
-354 161 -319 779 -1299 1076 -1706 l18 -25 19 25 c26 32 457 677 536 800 237
371 479 777 542 912 91 195 140 435 128 629 -20 322 -131 575 -346 789 -193
193 -450 324 -704 359 -89 13 -274 12 -361 0z m332 -485 c239 -49 428 -200
531 -425 47 -101 61 -156 69 -264 25 -354 -206 -675 -552 -767 -183 -49 -365
-28 -546 63 -190 95 -341 291 -385 501 -20 91 -14 286 11 368 85 277 310 471
620 534 49 10 182 5 252 -10z"/>
<path d="M2380 3544 c-96 -20 -180 -66 -253 -137 -246 -239 -190 -666 108
-824 92 -48 158 -64 267 -64 157 0 274 49 378 157 138 144 183 364 112 551
-59 156 -211 282 -383 318 -85 18 -143 18 -229 -1z"/>
</g>
</svg>
