<?xml version="1.0" standalone="no"?>
<!DOCTYPE svg PUBLIC "-//W3C//DTD SVG 20010904//EN"
 "http://www.w3.org/TR/2001/REC-SVG-20010904/DTD/svg10.dtd">
<svg version="1.0" xmlns="http://www.w3.org/2000/svg"
 width="500.000000pt" height="500.000000pt" viewBox="0 0 500.000000 500.000000"
 preserveAspectRatio="xMidYMid meet">

<g transform="translate(0.000000,500.000000) scale(0.100000,-0.100000)"
fill="#000000" stroke="none">
<path d="M2224 4114 c-21 -15 -41 -29 -44 -33 -3 -3 -30 -26 -60 -51 -30 -25
-57 -47 -60 -50 -5 -6 -156 -134 -270 -230 -29 -25 -87 -73 -127 -107 -41 -35
-78 -63 -84 -63 -5 0 -9 71 -9 173 0 121 -4 177 -12 185 -17 17 -439 17 -456
0 -9 -9 -12 -111 -12 -398 l0 -386 -22 -20 c-13 -10 -79 -66 -148 -124 -69
-57 -143 -120 -165 -140 -71 -62 -147 -125 -161 -133 -24 -14 -54 -84 -54
-125 0 -104 99 -201 193 -189 48 7 93 40 327 241 14 12 111 93 215 181 105 88
201 170 215 182 14 12 117 99 230 193 113 95 219 184 235 199 17 14 55 46 85
71 30 25 90 75 132 112 131 114 114 111 210 32 46 -37 85 -70 88 -74 3 -3 30
-25 60 -50 30 -25 66 -54 79 -65 14 -11 41 -34 60 -51 20 -17 106 -89 191
-160 85 -71 242 -203 348 -292 131 -109 201 -162 217 -162 16 0 33 13 52 39
52 73 159 110 266 93 31 -5 57 -8 57 -6 0 2 -28 27 -63 56 -154 128 -302 253
-307 258 -3 3 -34 30 -70 60 -36 30 -83 71 -106 90 -22 19 -51 44 -65 55 -84
69 -265 220 -269 225 -3 3 -102 87 -220 185 -214 179 -238 200 -295 250 -36
32 -85 55 -118 55 -13 0 -42 -12 -63 -26z"/>
<path d="M2285 3498 c-18 -10 -290 -235 -326 -269 -8 -8 -39 -34 -69 -59 -30
-25 -68 -57 -85 -72 -29 -25 -90 -76 -361 -303 -65 -55 -121 -102 -124 -105
-3 -3 -59 -51 -125 -106 -66 -54 -135 -112 -152 -128 l-33 -29 0 -669 c0 -715
0 -708 50 -753 21 -19 36 -20 429 -20 l406 0 5 480 c4 359 8 486 18 502 28 50
42 53 267 53 190 0 213 -2 242 -20 59 -36 58 -24 63 -540 l5 -475 436 0 c423
0 438 1 459 20 45 40 50 69 50 320 l0 235 -36 -15 c-136 -57 -284 43 -284 192
0 80 18 124 72 177 51 50 57 73 17 68 -36 -4 -110 18 -145 44 -51 38 -63 76
-65 208 l-1 118 -37 -5 c-20 -3 -67 -13 -106 -22 -110 -24 -150 -21 -174 14
-31 43 -29 111 5 145 34 34 73 34 196 1 51 -14 99 -25 106 -25 9 0 12 31 12
121 l0 121 34 34 c22 22 47 35 75 40 22 4 41 10 41 14 0 7 -56 55 -305 264
-124 104 -178 150 -220 187 -22 19 -83 71 -135 115 -108 90 -125 105 -159 133
-13 12 -24 21 -25 21 -1 0 -10 -6 -21 -12z m359 -744 c38 -39 36 -93 -5 -128
-41 -35 -83 -34 -120 3 -59 59 -22 151 61 151 27 0 45 -7 64 -26z m7 -573 c40
-40 39 -82 -1 -123 -27 -27 -36 -30 -72 -25 -52 7 -69 25 -75 78 -4 33 0 49
14 65 38 44 93 46 134 5z"/>
<path d="M3571 2719 c-17 -23 -33 -60 -37 -85 -3 -25 -12 -64 -19 -87 l-12
-42 -54 0 -54 0 -3 40 c-5 82 -11 85 -139 85 l-113 0 0 -233 c0 -168 3 -236
12 -245 8 -8 46 -12 104 -12 85 0 94 2 108 22 9 12 16 30 16 40 0 14 8 18 40
18 l41 0 -6 -37 c-7 -48 -23 -106 -42 -158 -8 -22 -22 -60 -30 -85 -10 -32
-32 -62 -75 -102 -56 -53 -60 -60 -54 -90 3 -18 17 -43 32 -55 48 -43 92 -26
162 61 75 93 110 172 142 321 l17 80 94 3 95 3 12 -51 c7 -27 17 -74 23 -102
6 -29 15 -71 20 -93 4 -22 11 -59 15 -82 l6 -43 -74 0 c-85 0 -98 -8 -98 -61
0 -59 18 -69 121 -69 l89 0 5 -27 c4 -16 10 -46 16 -68 5 -22 25 -121 45 -220
19 -98 40 -187 45 -197 17 -32 57 -32 208 -2 131 26 147 32 160 55 15 27 13
38 -144 694 -52 218 -56 278 -15 282 155 16 203 41 215 113 8 45 1 73 -27 113
-20 27 -23 28 -103 26 -45 -1 -87 1 -92 4 -5 3 -15 32 -22 63 -21 91 -50 174
-74 206 -41 55 -55 58 -301 58 l-226 0 -29 -41z m454 -149 c4 -21 4 -44 0 -50
-8 -13 -321 -14 -330 -1 -3 6 -3 28 1 50 l7 41 157 0 158 0 7 -40z"/>
</g>
</svg>
