<?xml version="1.0" standalone="no"?>
<!DOCTYPE svg PUBLIC "-//W3C//DTD SVG 20010904//EN"
 "http://www.w3.org/TR/2001/REC-SVG-20010904/DTD/svg10.dtd">
<svg version="1.0" xmlns="http://www.w3.org/2000/svg"
 width="500.000000pt" height="500.000000pt" viewBox="0 0 500.000000 500.000000"
 preserveAspectRatio="xMidYMid meet">

<g transform="translate(0.000000,500.000000) scale(0.100000,-0.100000)"
fill="#000000" stroke="none">
<path d="M2343 3950 c-18 -10 -39 -32 -47 -49 -11 -20 -34 -38 -73 -55 -113
-53 -248 -188 -313 -317 -11 -21 -24 -39 -28 -39 -4 0 -25 16 -46 34 -81 71
-250 126 -338 111 -182 -32 -275 -89 -370 -227 -52 -76 -63 -134 -63 -338 0
-171 2 -190 24 -245 35 -88 97 -173 153 -209 23 -15 28 -26 28 -57 0 -21 -5
-50 -12 -64 -13 -29 -90 -72 -168 -94 -201 -58 -297 -116 -375 -226 -26 -36
-58 -97 -71 -136 -23 -67 -24 -85 -24 -305 l0 -234 29 -32 29 -33 326 -3 326
-3 0 -166 0 -166 36 -33 35 -34 1093 0 1093 0 34 23 c18 12 36 33 40 47 4 14
7 94 8 178 l1 152 299 0 c164 0 312 3 330 6 17 4 42 18 56 32 l25 25 0 247 c0
212 -3 255 -18 302 -58 176 -179 281 -398 344 -108 32 -184 65 -208 93 -13 14
-20 37 -20 69 -1 44 3 51 42 86 81 74 140 179 157 281 12 72 5 310 -11 371
-46 179 -196 311 -389 343 -124 20 -270 -22 -366 -108 l-44 -38 -39 64 c-21
36 -67 96 -102 133 -63 67 -196 165 -238 176 -12 3 -30 22 -41 42 -32 59 -70
72 -210 72 -101 0 -125 -3 -152 -20z m267 -249 l5 -145 27 -7 c15 -4 36 -2 50
5 21 11 23 19 26 99 1 48 7 87 12 87 20 0 138 -100 183 -156 54 -67 127 -209
127 -248 l0 -26 -540 0 c-501 0 -566 3 -530 25 6 3 10 17 10 31 0 13 13 53 29
88 48 107 133 208 226 270 l40 26 5 -92 c5 -88 6 -93 32 -106 18 -9 34 -9 52
-2 l26 10 0 138 c0 76 3 142 7 146 4 4 52 5 107 4 l101 -3 5 -144z m-930 -214
c30 -14 77 -48 104 -76 56 -57 61 -84 27 -145 -16 -28 -21 -54 -21 -115 0 -90
22 -135 77 -161 30 -14 32 -17 26 -55 -28 -189 -234 -338 -420 -304 -119 22
-214 96 -267 209 l-31 65 0 175 c1 187 2 192 59 280 43 69 137 135 216 151 64
14 171 3 230 -24z m1943 0 c71 -32 135 -96 173 -173 29 -58 29 -61 29 -234 0
-172 -1 -176 -29 -237 -33 -72 -107 -147 -178 -181 -137 -67 -297 -36 -409 79
-45 46 -56 64 -88 142 -19 48 -14 86 13 97 13 5 36 24 50 43 24 31 26 42 26
128 0 90 -1 96 -30 131 -37 44 -33 55 45 133 81 81 148 106 265 101 53 -3 92
-11 133 -29z m-525 -345 l3 -52 -598 2 -598 3 -3 39 c-6 72 -55 66 600 64
l593 -3 3 -53z m-130 -300 c-3 -133 -5 -141 -37 -208 -53 -108 -166 -210 -276
-249 -11 -4 -50 -13 -87 -21 -57 -11 -79 -11 -135 0 -192 38 -304 132 -383
321 -13 32 -27 253 -17 279 6 14 58 16 473 16 l466 0 -4 -138z m-1022 -216
c26 -72 88 -162 157 -229 62 -60 60 -66 -10 -36 -44 18 -68 27 -128 49 -33 12
-73 27 -88 32 -44 17 -67 54 -67 107 0 43 5 52 53 102 57 60 52 62 83 -25z
m1244 -76 c0 -28 -4 -59 -10 -69 -9 -18 -67 -44 -245 -112 -33 -12 -66 -27
-73 -32 -7 -5 -15 -7 -18 -5 -3 3 25 37 63 75 77 79 125 153 154 240 l21 60
54 -53 c51 -51 54 -56 54 -104z m-1480 -58 c0 -58 33 -112 82 -134 30 -14 107
-44 258 -101 30 -11 63 -26 74 -33 17 -12 16 -13 -10 -27 -38 -19 -182 -70
-315 -112 -287 -89 -428 -237 -464 -487 l-7 -48 -129 0 -129 0 0 111 c0 129
-7 149 -55 149 -54 0 -65 -25 -65 -152 l0 -108 -110 0 -110 0 0 193 c0 136 4
206 14 238 45 149 135 232 317 292 58 20 125 43 150 53 111 44 166 109 153
180 -7 37 -6 37 22 30 109 -25 169 -27 239 -9 39 11 73 17 78 15 4 -2 7 -24 7
-50z m1689 28 c57 -10 123 -5 204 15 25 7 27 5 27 -23 0 -65 42 -127 112 -163
20 -10 97 -39 172 -64 75 -25 153 -55 173 -66 72 -40 127 -111 172 -222 7 -18
11 -105 11 -237 l0 -210 -110 0 -110 0 0 108 c0 122 -12 152 -58 152 -53 0
-57 -10 -60 -140 l-4 -120 -128 0 -128 0 -7 43 c-22 139 -67 236 -149 323 -72
76 -150 124 -255 158 -42 13 -134 43 -206 65 -71 23 -145 50 -164 60 -32 17
-33 19 -15 29 10 5 53 21 94 35 128 43 234 88 269 114 36 28 61 76 61 121 0
33 8 45 26 38 7 -3 40 -10 73 -16z m-1026 -264 c95 -26 204 -20 335 20 21 6
22 4 22 -59 0 -127 -65 -214 -182 -246 -37 -11 -57 -11 -95 -2 -116 29 -182
117 -183 245 0 78 -10 73 103 42z m-183 -208 c86 -180 319 -252 484 -149 70
45 146 140 146 184 0 22 -11 25 150 -32 63 -22 160 -54 215 -71 176 -55 255
-119 324 -257 52 -106 63 -180 59 -398 l-3 -180 -147 -3 -148 -3 0 136 c0 122
-2 137 -20 155 -23 23 -30 24 -64 9 -25 -12 -25 -13 -28 -153 l-3 -141 -657
-3 -657 -2 -3 142 -3 143 -27 13 c-20 9 -32 10 -52 1 l-26 -12 0 -144 0 -143
-144 0 c-122 0 -145 2 -150 16 -11 28 -6 391 5 446 28 130 120 254 235 315 32
17 141 58 241 91 100 34 195 68 210 76 15 8 30 15 33 16 3 0 16 -23 30 -52z"/>
</g>
</svg>
