<?xml version="1.0" standalone="no"?>
<!DOCTYPE svg PUBLIC "-//W3C//DTD SVG 20010904//EN"
 "http://www.w3.org/TR/2001/REC-SVG-20010904/DTD/svg10.dtd">
<svg version="1.0" xmlns="http://www.w3.org/2000/svg"
 width="500.000000pt" height="500.000000pt" viewBox="0 0 500.000000 500.000000"
 preserveAspectRatio="xMidYMid meet">

<g transform="translate(0.000000,500.000000) scale(0.100000,-0.100000)"
fill="#000000" stroke="none">
<path d="M2030 4229 c-41 -10 -147 -35 -235 -54 -235 -51 -406 -90 -465 -105
-36 -9 -89 -23 -150 -41 -19 -6 -58 -15 -87 -20 -95 -17 -127 -32 -145 -67
-27 -54 -1 -107 58 -118 39 -7 41 -9 47 -51 3 -21 38 -161 76 -311 80 -311
103 -364 196 -457 90 -90 186 -136 345 -163 44 -7 45 -8 51 -54 4 -25 10 -55
13 -66 5 -15 1 -21 -16 -25 -270 -59 -671 -150 -694 -158 -43 -13 -61 -56 -44
-101 26 -65 41 -69 165 -43 105 22 103 23 100 -32 -2 -26 -9 -49 -17 -53 -7
-4 -65 -18 -128 -30 -144 -29 -167 -40 -175 -84 -9 -46 26 -123 60 -132 32 -8
102 2 177 26 53 16 58 17 58 1 0 -14 -14 -161 -50 -516 -5 -49 -14 -139 -20
-200 -6 -60 -16 -159 -22 -220 -6 -60 -12 -145 -12 -187 -1 -68 2 -79 24 -103
42 -45 77 -58 134 -51 46 6 288 61 378 86 44 12 84 57 98 109 9 33 15 39 43
43 17 3 133 29 257 57 161 38 242 62 285 84 77 41 171 135 212 212 65 123 77
192 119 673 6 68 8 72 33 78 99 22 187 77 247 155 6 8 31 28 56 45 25 17 47
40 50 50 12 50 -69 378 -100 400 -9 6 -40 17 -68 23 -29 7 -70 20 -91 31 -69
33 -155 46 -215 31 -99 -23 -223 -52 -268 -62 -25 -6 -61 -14 -80 -19 -36 -9
-107 -25 -147 -33 -18 -4 -23 2 -33 42 -6 25 -16 57 -21 70 -5 13 -8 24 -7 25
149 84 243 214 274 379 23 118 25 106 -83 556 l-56 233 27 24 c35 33 36 85 1
119 -29 30 -53 30 -155 4z m16 -226 c3 -16 16 -71 29 -123 40 -169 58 -251 54
-255 -9 -8 -890 -8 -898 1 -15 18 -63 196 -55 203 5 4 36 13 69 20 33 7 71 17
85 21 14 4 50 13 80 19 30 7 91 21 135 31 44 11 121 28 170 39 50 11 135 31
190 45 132 31 133 31 141 -1z m490 -1895 c-3 -13 -8 -61 -12 -108 -10 -124
-11 -134 -18 -176 -3 -22 -8 -70 -11 -109 -11 -141 -62 -261 -147 -341 -29
-28 -63 -56 -75 -62 -11 -6 -101 -32 -199 -56 -99 -24 -205 -52 -237 -60 -32
-9 -61 -16 -64 -16 -6 0 0 62 28 295 10 88 23 203 29 255 23 202 32 260 42
254 5 -3 31 0 59 6 28 7 52 10 55 7 3 -3 12 -54 19 -114 21 -173 107 -373 176
-409 49 -25 106 -14 136 25 21 28 15 80 -15 124 -43 64 -59 105 -87 218 -30
126 -33 205 -7 213 15 5 74 18 137 32 11 2 56 13 100 23 44 11 83 20 88 20 4
1 5 -9 3 -21z"/>
<path d="M3784 3339 c-32 -22 -98 -68 -146 -102 -47 -34 -163 -116 -258 -182
-272 -190 -295 -207 -298 -235 -4 -35 31 -70 69 -70 28 0 142 74 459 299 25
17 75 52 112 78 37 25 65 50 61 56 -3 5 -1 7 4 4 6 -4 38 13 72 38 53 39 61
49 61 77 0 39 -7 51 -37 67 -31 16 -34 15 -99 -30z"/>
<path d="M4035 2883 c-11 -2 -58 -13 -105 -24 -47 -11 -105 -25 -130 -30 -25
-6 -61 -14 -80 -19 -19 -5 -57 -14 -85 -20 -27 -6 -66 -15 -85 -20 -19 -5 -55
-13 -80 -19 -153 -35 -267 -65 -283 -73 -43 -22 -37 -96 10 -117 17 -8 36 -9
57 -3 17 6 58 15 91 22 33 7 85 19 115 27 30 8 100 23 155 34 55 12 118 25
140 30 59 13 129 28 185 38 197 37 235 64 195 140 -19 39 -43 47 -100 34z"/>
<path d="M3200 2470 c-43 -43 -13 -103 56 -114 112 -17 496 -78 539 -86 260
-46 269 -46 294 -21 11 11 21 30 21 42 0 41 -17 56 -82 68 -100 19 -160 30
-203 37 -102 16 -145 23 -205 33 -36 6 -94 15 -130 21 -36 5 -105 16 -155 24
-114 20 -111 20 -135 -4z"/>
</g>
</svg>
