<?xml version="1.0" standalone="no"?>
<!DOCTYPE svg PUBLIC "-//W3C//DTD SVG 20010904//EN"
 "http://www.w3.org/TR/2001/REC-SVG-20010904/DTD/svg10.dtd">
<svg version="1.0" xmlns="http://www.w3.org/2000/svg"
 width="500.000000pt" height="500.000000pt" viewBox="0 0 500.000000 500.000000"
 preserveAspectRatio="xMidYMid meet">

<g transform="translate(0.000000,500.000000) scale(0.100000,-0.100000)"
fill="#000000" stroke="none">
<path d="M1160 4324 c-78 -18 -153 -86 -179 -163 -16 -49 -16 -3188 0 -3228
32 -78 42 -94 80 -127 82 -70 11 -66 1243 -66 1075 0 1114 1 1191 20 87 22 90
23 185 67 72 34 174 111 233 176 92 101 181 267 193 362 1 11 7 40 13 65 13
59 12 234 -2 285 -6 22 -10 44 -8 48 3 15 -40 129 -73 192 -35 67 -33 65 -110
157 l-56 67 0 710 0 710 -84 88 c-46 48 -205 210 -352 360 -227 229 -274 272
-304 277 -68 12 -1919 12 -1970 0z m1841 -407 c-3 -265 5 -317 57 -377 66 -78
93 -84 377 -90 l250 -5 3 -567 c1 -313 0 -568 -3 -568 -3 0 -13 4 -23 9 -108
55 -208 75 -367 76 -133 0 -158 -4 -260 -37 -87 -29 -185 -79 -178 -91 3 -6 1
-7 -5 -4 -11 8 -94 -54 -158 -117 -23 -23 -63 -75 -90 -116 -82 -124 -98 -165
-129 -335 -18 -100 -18 -168 0 -270 31 -176 95 -303 214 -428 31 -32 58 -63
59 -68 2 -5 -295 -9 -768 -9 l-771 0 -24 25 -25 24 0 418 c-1 892 -2 2640 -1
2679 1 26 8 48 21 62 l21 22 901 -2 901 -3 -2 -228z m389 -92 l185 -185 -179
0 c-159 0 -180 2 -192 18 -10 12 -13 61 -14 185 0 92 3 167 8 167 4 0 90 -83
192 -185z m27 -1617 c72 -17 165 -49 190 -65 12 -8 28 -11 34 -7 7 4 9 3 5 -4
-3 -6 2 -13 11 -16 10 -3 54 -43 98 -88 57 -59 90 -104 114 -153 67 -141 73
-167 68 -320 -4 -132 -11 -177 -41 -235 -8 -18 -13 -36 -10 -41 3 -5 0 -9 -6
-9 -6 0 -14 -10 -19 -23 -13 -32 -77 -115 -125 -160 -72 -67 -196 -131 -309
-158 -66 -16 -258 -7 -322 16 -180 62 -326 190 -400 350 -72 155 -73 381 -3
532 107 234 340 388 590 392 43 1 99 -4 125 -11z"/>
<path d="M1979 3400 c-365 -5 -399 -6 -417 -23 -25 -23 -33 -62 -20 -99 20
-58 20 -58 561 -58 325 0 505 4 525 11 42 14 65 63 51 111 -15 56 -52 68 -191
66 -62 -2 -291 -5 -509 -8z"/>
<path d="M1603 2827 c-56 -21 -79 -78 -53 -128 25 -45 59 -51 264 -45 105 2
474 5 819 5 l628 1 24 25 c27 26 33 72 15 106 -27 50 -10 49 -867 48 -584 0
-807 -4 -830 -12z"/>
<path d="M1567 2250 c-33 -26 -43 -70 -23 -108 8 -16 22 -32 30 -35 8 -3 169
-7 358 -7 189 -1 372 -2 408 -3 75 -1 102 4 123 21 38 32 26 120 -19 141 -17
8 -149 11 -438 11 -399 0 -414 -1 -439 -20z"/>
<path d="M3590 1863 c-8 -3 -104 -93 -212 -201 l-197 -196 -28 24 c-15 14 -54
50 -86 80 -32 30 -68 59 -80 63 -57 21 -117 -27 -117 -95 0 -38 6 -46 113
-150 121 -118 143 -137 175 -143 56 -10 85 12 323 252 232 234 236 239 238
281 2 71 -58 110 -129 85z"/>
</g>
</svg>
