<?xml version="1.0" standalone="no"?>
<!DOCTYPE svg PUBLIC "-//W3C//DTD SVG 20010904//EN"
 "http://www.w3.org/TR/2001/REC-SVG-20010904/DTD/svg10.dtd">
<svg version="1.0" xmlns="http://www.w3.org/2000/svg"
 width="500.000000pt" height="500.000000pt" viewBox="0 0 500.000000 500.000000"
 preserveAspectRatio="xMidYMid meet">

<g transform="translate(0.000000,500.000000) scale(0.100000,-0.100000)"
fill="#000000" stroke="none">
<path d="M2440 4028 c-43 -25 -41 -25 -420 -235 -168 -93 -325 -181 -350 -195
-25 -14 -72 -40 -105 -58 -33 -18 -154 -85 -270 -150 -191 -107 -262 -146
-366 -202 -48 -27 -66 -75 -44 -117 8 -17 24 -35 34 -41 25 -13 88 -13 96 0 3
6 10 10 16 10 5 0 9 -380 9 -996 l0 -996 31 -29 31 -29 1400 0 1400 0 29 29
29 29 0 997 c0 946 1 997 18 990 32 -15 80 -17 102 -5 12 6 28 28 37 47 28 69
27 70 -365 288 -196 109 -373 208 -392 218 -65 36 -125 70 -170 94 -25 14 -49
28 -55 33 -5 4 -44 25 -85 47 -41 22 -131 72 -200 110 -69 39 -156 87 -195
108 -38 21 -83 47 -100 57 -38 23 -71 22 -115 -4z m127 -207 c87 -50 578 -321
833 -461 135 -74 163 -90 290 -162 l95 -54 -2 -989 -2 -990 -150 -3 -151 -3
-2 610 -3 609 -24 26 -24 26 -922 0 -922 0 -24 -26 -24 -26 -3 -609 -3 -609
-154 0 -155 0 0 994 0 994 38 20 c20 10 100 54 177 97 77 43 165 91 195 107
30 17 69 38 85 48 28 16 58 33 173 96 100 56 480 269 542 305 36 20 66 38 67
38 1 1 32 -16 70 -38z m728 -1661 l0 -95 -792 -3 -793 -2 0 100 0 100 793 -2
792 -3 0 -95z m0 -370 l0 -95 -792 -3 -793 -2 0 100 0 100 793 -2 792 -3 0
-95z m0 -370 l0 -95 -792 -3 -793 -2 0 100 0 100 793 -2 792 -3 0 -95z"/>
<path d="M1732 3170 c-12 -11 -24 -31 -27 -43 -4 -13 -5 -118 -3 -233 2 -171
6 -213 18 -225 36 -35 69 -39 296 -39 239 0 281 7 303 48 7 13 11 102 11 240
0 207 -1 221 -21 246 l-20 26 -268 0 c-255 0 -268 -1 -289 -20z m428 -255 l0
-105 -138 0 c-76 0 -141 2 -143 4 -2 2 -3 50 -1 105 l3 101 140 0 139 0 0
-105z"/>
<path d="M2693 3162 c-22 -26 -23 -34 -23 -245 0 -138 4 -226 11 -239 22 -41
64 -48 309 -48 332 0 320 -11 320 290 0 203 -4 227 -40 257 -11 9 -85 12 -285
12 l-270 1 -22 -28z m437 -247 l0 -105 -145 0 -145 0 0 105 0 105 145 0 145 0
0 -105z"/>
</g>
</svg>
